<svg xmlns="http://www.w3.org/2000/svg" width="128" height="128" viewBox="0 0 128 128" role="img" aria-labelledby="title-14 desc-14">
  <title id="title-14">Player avatar 14</title>
  <desc id="desc-14">Short curly fringe with red bandana.</desc>
  <defs>
    <linearGradient id="bg-14" x1="0" y1="0" x2="1" y2="1">
      <stop offset="0%" stop-color="#F2D6CC"/>
      <stop offset="100%" stop-color="#FBEAE3"/>
    </linearGradient>
  </defs>
  <rect width="128" height="128" rx="24" fill="url(#bg-14)"/>
  <circle cx="64" cy="64" r="46" fill="#FFFFFF" opacity="0.12"/>
  <path d="M18 128 C25 104 41 94 64 94 C87 94 103 104 110 128 Z" fill="#A64046"/>
  <rect x="57" y="84" width="14" height="16" rx="7" fill="#C58B63"/>
  
  <path d="M37 55 C37 34 50 23 64 23 C78 23 91 34 91 53 L85 42 L76 47 L69 40 L61 47 L52 41 L44 48 Z" fill="#4A322A" stroke="#2A3945" stroke-width="2.4"/>
  <ellipse cx="64" cy="63" rx="32" ry="31" fill="#C58B63" stroke="#2A3945" stroke-width="2.4"/>
  <circle cx="35" cy="64" r="6" fill="#C58B63"/>
  <circle cx="93" cy="64" r="6" fill="#C58B63"/>
  
  <path d="M39 46 C44 30 56 24 69 24 C80 24 88 29 90 39 L86 49 H43 Z" fill="#C7484B" stroke="#2A3945" stroke-width="2.4"/>
<path d="M83 45 L92 56" stroke="#C7484B" stroke-width="5" stroke-linecap="round"/>
  <path d="M46 53 C49 50 54 50 57 52" stroke="#2F1F1A" stroke-width="2.4" fill="none" stroke-linecap="round"/>
<path d="M71 52 C74 50 79 50 82 53" stroke="#2F1F1A" stroke-width="2.4" fill="none" stroke-linecap="round"/>
  <circle cx="52" cy="61" r="4.6" fill="#6E7E4D" stroke="#21303C" stroke-width="1.8"/>
<circle cx="76" cy="61" r="4.6" fill="#6E7E4D" stroke="#21303C" stroke-width="1.8"/>
<circle cx="52" cy="61" r="1.8" fill="#21303C"/>
<circle cx="76" cy="61" r="1.8" fill="#21303C"/>
  <ellipse cx="64" cy="73" rx="4" ry="3" fill="#A86954"/>
  <path d="M54 82 Q64 89 74 82" stroke="#8D4A43" stroke-width="2.4" fill="none" stroke-linecap="round"/>
  
  
</svg>
