<svg xmlns="http://www.w3.org/2000/svg" width="128" height="128" viewBox="0 0 128 128" role="img" aria-labelledby="title-04 desc-04">
  <title id="title-04">Player avatar 04</title>
  <desc id="desc-04">Dark fringe framed by a plum hood.</desc>
  <defs>
    <linearGradient id="bg-04" x1="0" y1="0" x2="1" y2="1">
      <stop offset="0%" stop-color="#E8D6E7"/>
      <stop offset="100%" stop-color="#F6EDF6"/>
    </linearGradient>
  </defs>
  <rect width="128" height="128" rx="24" fill="url(#bg-04)"/>
  <circle cx="64" cy="64" r="46" fill="#FFFFFF" opacity="0.12"/>
  <path d="M18 128 C25 104 41 94 64 94 C87 94 103 104 110 128 Z" fill="#6E577F"/>
  <rect x="57" y="84" width="14" height="16" rx="7" fill="#E5C2B2"/>
  <path d="M28 67 C28 33 46 18 64 18 C82 18 100 33 100 67 L94 102 H34 Z" fill="#6E467C" stroke="#2A3945" stroke-width="2.6"/>
  <path d="M32 58 C32 34 46 21 66 21 C82 21 92 34 92 51 C92 72 84 93 76 100 L46 100 C37 92 32 77 32 58 Z" fill="#2A2130" stroke="#2A3945" stroke-width="2.4"/>
  <path d="M64 28 C47 28 37 40 38 58 C39 75 49 92 64 98 C79 92 89 75 90 58 C91 40 81 28 64 28 Z" fill="#E5C2B2" stroke="#2A3945" stroke-width="2.4"/>
  <circle cx="35" cy="64" r="6" fill="#E5C2B2"/>
  <circle cx="93" cy="64" r="6" fill="#E5C2B2"/>
  <path d="M44 46 C54 32 69 30 82 36 C73 40 67 47 63 57 C59 52 54 48 44 46 Z" fill="#2A2130" stroke="#2A3945" stroke-width="2.2"/>
  
  <path d="M46 53 C49 50 54 50 57 52" stroke="#2F1F1A" stroke-width="2.4" fill="none" stroke-linecap="round"/>
<path d="M71 52 C74 50 79 50 82 53" stroke="#2F1F1A" stroke-width="2.4" fill="none" stroke-linecap="round"/>
  <circle cx="52" cy="61" r="4.6" fill="#5D6F96" stroke="#22303C" stroke-width="1.8"/>
<circle cx="76" cy="61" r="4.6" fill="#5D6F96" stroke="#22303C" stroke-width="1.8"/>
<circle cx="52" cy="61" r="1.8" fill="#22303C"/>
<circle cx="76" cy="61" r="1.8" fill="#22303C"/>
  <path d="M64 66 L61 76 H67" stroke="#A86954" stroke-width="2.1" fill="none" stroke-linecap="round" stroke-linejoin="round"/>
  <path d="M56 83 Q64 87 72 83" stroke="#8D4A43" stroke-width="2.2" fill="none" stroke-linecap="round"/>
  
  
</svg>
