<svg xmlns="http://www.w3.org/2000/svg" width="128" height="128" viewBox="0 0 128 128" role="img" aria-labelledby="title-18 desc-18">
  <title id="title-18">Player avatar 18</title>
  <desc id="desc-18">Short bob with dark teal beret and a single pearl.</desc>
  <defs>
    <linearGradient id="bg-18" x1="0" y1="0" x2="1" y2="1">
      <stop offset="0%" stop-color="#D7E3E1"/>
      <stop offset="100%" stop-color="#EEF6F3"/>
    </linearGradient>
  </defs>
  <rect width="128" height="128" rx="24" fill="url(#bg-18)"/>
  <circle cx="64" cy="64" r="46" fill="#FFFFFF" opacity="0.12"/>
  <path d="M18 128 C25 104 41 94 64 94 C87 94 103 104 110 128 Z" fill="#4D6F72"/>
  <rect x="57" y="84" width="14" height="16" rx="7" fill="#E6C4B7"/>
  
  <path d="M34 58 C34 35 47 24 64 24 C81 24 94 35 94 58 C94 77 86 90 76 95 H52 C42 90 34 77 34 58 Z" fill="#4A322F" stroke="#2A3945" stroke-width="2.4"/>
  <circle cx="64" cy="62" r="31" fill="#E6C4B7" stroke="#2A3945" stroke-width="2.4"/>
  <circle cx="35" cy="64" r="6" fill="#E6C4B7"/>
  <circle cx="93" cy="64" r="6" fill="#E6C4B7"/>
  <path d="M42 49 C48 40 56 36 64 36 C72 36 80 40 86 49" fill="#4A322F" stroke="#2A3945" stroke-width="2.2"/>
  <path d="M36 42 C42 28 55 20 72 23 C85 25 93 33 94 43 C86 40 76 39 66 39 C55 39 45 40 36 42 Z" fill="#2B7371" stroke="#2A3945" stroke-width="2.4"/>
  <path d="M45 54 C49 49 54 48 58 50" stroke="#2F1F1A" stroke-width="2.6" fill="none" stroke-linecap="round"/>
<path d="M70 50 C74 48 79 49 83 54" stroke="#2F1F1A" stroke-width="2.6" fill="none" stroke-linecap="round"/>
  <circle cx="52" cy="61" r="4.6" fill="#5D6F96" stroke="#20303B" stroke-width="1.8"/>
<circle cx="76" cy="61" r="4.6" fill="#5D6F96" stroke="#20303B" stroke-width="1.8"/>
<circle cx="52" cy="61" r="1.8" fill="#20303B"/>
<circle cx="76" cy="61" r="1.8" fill="#20303B"/>
  <ellipse cx="64" cy="73" rx="4" ry="3" fill="#A86954"/>
  <path d="M54 82 Q64 89 74 82" stroke="#8D4A43" stroke-width="2.4" fill="none" stroke-linecap="round"/>
  
  <circle cx="91" cy="74" r="3.2" fill="#F4F2EF" stroke="#2A3945" stroke-width="1.4"/>
</svg>
