<svg xmlns="http://www.w3.org/2000/svg" width="128" height="128" viewBox="0 0 128 128" role="img" aria-labelledby="title-12 desc-12">
  <title id="title-12">Player avatar 12</title>
  <desc id="desc-12">Shaved head with lime over-ear headphones.</desc>
  <defs>
    <linearGradient id="bg-12" x1="0" y1="0" x2="1" y2="1">
      <stop offset="0%" stop-color="#D9E8C7"/>
      <stop offset="100%" stop-color="#EEF7E5"/>
    </linearGradient>
  </defs>
  <rect width="128" height="128" rx="24" fill="url(#bg-12)"/>
  <circle cx="64" cy="64" r="46" fill="#FFFFFF" opacity="0.12"/>
  <path d="M18 128 C25 104 41 94 64 94 C87 94 103 104 110 128 Z" fill="#90C94D"/>
  <rect x="57" y="84" width="14" height="16" rx="7" fill="#6A4A40"/>
  <path d="M42 42 C45 29 54 23 64 23 C74 23 83 29 86 42" stroke="#9AD542" stroke-width="8" fill="none" stroke-linecap="round"/>
<rect x="25" y="47" width="14" height="28" rx="7" fill="#9AD542" stroke="#2A3945" stroke-width="2"/>
<rect x="89" y="47" width="14" height="28" rx="7" fill="#9AD542" stroke="#2A3945" stroke-width="2"/>
  
  <circle cx="64" cy="62" r="31" fill="#6A4A40" stroke="#2A3945" stroke-width="2.4"/>
  <circle cx="35" cy="64" r="6" fill="#6A4A40"/>
  <circle cx="93" cy="64" r="6" fill="#6A4A40"/>
  
  
  <path d="M46 53 C49 50 54 50 57 52" stroke="#2F1F1A" stroke-width="2.4" fill="none" stroke-linecap="round"/>
<path d="M71 52 C74 50 79 50 82 53" stroke="#2F1F1A" stroke-width="2.4" fill="none" stroke-linecap="round"/>
  <circle cx="52" cy="61" r="4.6" fill="#5E7EA3" stroke="#1E2833" stroke-width="1.8"/>
<circle cx="76" cy="61" r="4.6" fill="#5E7EA3" stroke="#1E2833" stroke-width="1.8"/>
<circle cx="52" cy="61" r="1.8" fill="#1E2833"/>
<circle cx="76" cy="61" r="1.8" fill="#1E2833"/>
  <path d="M64 66 L59 77 H69" stroke="#A86954" stroke-width="2.4" fill="none" stroke-linecap="round" stroke-linejoin="round"/>
  <path d="M56 83 Q64 87 72 83" stroke="#8D4A43" stroke-width="2.2" fill="none" stroke-linecap="round"/>
  
  
</svg>
