<svg xmlns="http://www.w3.org/2000/svg" width="128" height="128" viewBox="0 0 128 128" role="img" aria-labelledby="title-01 desc-01">
  <title id="title-01">Player avatar 01</title>
  <desc id="desc-01">Abstract human avatar placeholder for a player seat.</desc>
  <defs>
    <linearGradient id="bg-01" x1="0" y1="0" x2="1" y2="1">
      <stop offset="0%" stop-color="#F8BBD0"/>
      <stop offset="100%" stop-color="#FFFFFF" stop-opacity="0.35"/>
    </linearGradient>
  </defs>
  <rect width="128" height="128" rx="24" fill="url(#bg-01)"/>
  <circle cx="64" cy="54" r="30" fill="#F6D2B5"/>
  <path d="M34 53 C38 28, 90 27, 94 54 L94 43 C87 23, 41 22, 34 43 Z" fill="#3E2723"/>
  <rect x="44" y="84" width="40" height="16" rx="8" fill="#E7BCA1"/>
  <path d="M22 128 C26 100, 43 92, 64 92 C85 92, 102 100, 106 128 Z" fill="#1565C0"/>
  <ellipse cx="52" cy="58" rx="4" ry="5" fill="#1F2933"/>
  <ellipse cx="76" cy="58" rx="4" ry="5" fill="#1F2933"/>
  <path d="M50 80 Q64 88 78 80" stroke="#8D4A43" stroke-width="3" fill="none" stroke-linecap="round"/>
  <path d="M46 48 L56 46" stroke="#2C1A16" stroke-width="2" stroke-linecap="round"/>
  <path d="M72 50 L82 52" stroke="#2C1A16" stroke-width="2" stroke-linecap="round"/>
</svg>
