<svg xmlns="http://www.w3.org/2000/svg" width="128" height="128" viewBox="0 0 128 128" role="img" aria-labelledby="title-06 desc-06">
  <title id="title-06">Player avatar 06</title>
  <desc id="desc-06">Round afro with mint square glasses.</desc>
  <defs>
    <linearGradient id="bg-06" x1="0" y1="0" x2="1" y2="1">
      <stop offset="0%" stop-color="#DDE5F0"/>
      <stop offset="100%" stop-color="#EDF5FB"/>
    </linearGradient>
  </defs>
  <rect width="128" height="128" rx="24" fill="url(#bg-06)"/>
  <circle cx="64" cy="64" r="46" fill="#FFFFFF" opacity="0.12"/>
  <path d="M18 128 C25 104 41 94 64 94 C87 94 103 104 110 128 Z" fill="#6B93A8"/>
  <rect x="57" y="84" width="14" height="16" rx="7" fill="#5D433B"/>
  
  <circle cx="64" cy="49" r="35" fill="#2A2328" stroke="#2A3945" stroke-width="2.4"/>
  <circle cx="64" cy="62" r="31" fill="#5D433B" stroke="#2A3945" stroke-width="2.4"/>
  <circle cx="35" cy="64" r="6" fill="#5D433B"/>
  <circle cx="93" cy="64" r="6" fill="#5D433B"/>
  
  <rect x="42" y="53" width="20" height="18" rx="5" fill="none" stroke="#7AD2C6" stroke-width="3"/>
<rect x="66" y="53" width="20" height="18" rx="5" fill="none" stroke="#7AD2C6" stroke-width="3"/>
<path d="M62 62 H66" stroke="#7AD2C6" stroke-width="3" stroke-linecap="round"/>
  <path d="M46 53 C49 50 54 50 57 52" stroke="#2F1F1A" stroke-width="2.4" fill="none" stroke-linecap="round"/>
<path d="M71 52 C74 50 79 50 82 53" stroke="#2F1F1A" stroke-width="2.4" fill="none" stroke-linecap="round"/>
  <circle cx="52" cy="61" r="4.6" fill="#7AA45A" stroke="#16212A" stroke-width="1.8"/>
<circle cx="76" cy="61" r="4.6" fill="#7AA45A" stroke="#16212A" stroke-width="1.8"/>
<circle cx="52" cy="61" r="1.8" fill="#16212A"/>
<circle cx="76" cy="61" r="1.8" fill="#16212A"/>
  <ellipse cx="64" cy="73" rx="4" ry="3" fill="#A86954"/>
  <path d="M54 82 Q64 89 74 82" stroke="#8D4A43" stroke-width="2.4" fill="none" stroke-linecap="round"/>
  
  
</svg>
