<svg xmlns="http://www.w3.org/2000/svg" width="128" height="128" viewBox="0 0 128 128" role="img" aria-labelledby="title-19 desc-19">
  <title id="title-19">Player avatar 19</title>
  <desc id="desc-19">Wide long curls with a white sports visor.</desc>
  <defs>
    <linearGradient id="bg-19" x1="0" y1="0" x2="1" y2="1">
      <stop offset="0%" stop-color="#E7E0D7"/>
      <stop offset="100%" stop-color="#F6F2EC"/>
    </linearGradient>
  </defs>
  <rect width="128" height="128" rx="24" fill="url(#bg-19)"/>
  <circle cx="64" cy="64" r="46" fill="#FFFFFF" opacity="0.12"/>
  <path d="M18 128 C25 104 41 94 64 94 C87 94 103 104 110 128 Z" fill="#7B6FA4"/>
  <rect x="57" y="84" width="14" height="16" rx="7" fill="#66453E"/>
  
  <path d="M30 58 C30 33 47 22 64 22 C81 22 98 33 98 58 C98 82 88 98 80 102 H48 C40 98 30 82 30 58 Z" fill="#2E2430" stroke="#2A3945" stroke-width="2.4"/>
  <path d="M64 28 C47 28 37 40 38 58 C39 75 49 92 64 98 C79 92 89 75 90 58 C91 40 81 28 64 28 Z" fill="#66453E" stroke="#2A3945" stroke-width="2.4"/>
  <circle cx="35" cy="64" r="6" fill="#66453E"/>
  <circle cx="93" cy="64" r="6" fill="#66453E"/>
  <path d="M42 49 C48 38 58 34 64 34 C70 34 80 38 86 49" fill="#2E2430" stroke="#2A3945" stroke-width="2.2"/>
  <path d="M39 44 C43 29 54 23 66 23 C77 23 86 29 89 39 L85 48 H43 Z" fill="#FFFFFF" stroke="#2A3945" stroke-width="2.4"/>
<path d="M46 48 C56 53 72 53 87 48" fill="#F5F7FA" stroke="#2A3945" stroke-width="2.2"/>
  <path d="M46 53 C49 50 54 50 57 52" stroke="#2F1F1A" stroke-width="2.4" fill="none" stroke-linecap="round"/>
<path d="M71 52 C74 50 79 50 82 53" stroke="#2F1F1A" stroke-width="2.4" fill="none" stroke-linecap="round"/>
  <circle cx="52" cy="61" r="4.6" fill="#6A834E" stroke="#18232D" stroke-width="1.8"/>
<circle cx="76" cy="61" r="4.6" fill="#6A834E" stroke="#18232D" stroke-width="1.8"/>
<circle cx="52" cy="61" r="1.8" fill="#18232D"/>
<circle cx="76" cy="61" r="1.8" fill="#18232D"/>
  <path d="M64 66 L59 77 H69" stroke="#A86954" stroke-width="2.4" fill="none" stroke-linecap="round" stroke-linejoin="round"/>
  <path d="M54 82 Q64 89 74 82" stroke="#8D4A43" stroke-width="2.4" fill="none" stroke-linecap="round"/>
  
  
</svg>
