<svg xmlns="http://www.w3.org/2000/svg" width="128" height="128" viewBox="0 0 128 128" role="img" aria-labelledby="title-17 desc-17">
  <title id="title-17">Player avatar 17</title>
  <desc id="desc-17">Tall pompadour with heavy brows.</desc>
  <defs>
    <linearGradient id="bg-17" x1="0" y1="0" x2="1" y2="1">
      <stop offset="0%" stop-color="#E4D2C9"/>
      <stop offset="100%" stop-color="#F6EAE4"/>
    </linearGradient>
  </defs>
  <rect width="128" height="128" rx="24" fill="url(#bg-17)"/>
  <circle cx="64" cy="64" r="46" fill="#FFFFFF" opacity="0.12"/>
  <path d="M18 128 C25 104 41 94 64 94 C87 94 103 104 110 128 Z" fill="#9D5D4A"/>
  <rect x="57" y="84" width="14" height="16" rx="7" fill="#B08B73"/>
  
  <path d="M38 56 C38 34 53 24 67 24 C82 24 91 36 89 53 L82 40 L71 35 L59 36 L49 41 L42 49 Z" fill="#322527" stroke="#2A3945" stroke-width="2.4"/>
<path d="M57 25 C65 15 80 14 88 22" stroke="#322527" stroke-width="10" stroke-linecap="round"/>
  <rect x="37" y="29" width="54" height="66" rx="16" fill="#B08B73" stroke="#2A3945" stroke-width="2.4"/>
  <circle cx="35" cy="64" r="6" fill="#B08B73"/>
  <circle cx="93" cy="64" r="6" fill="#B08B73"/>
  
  
  <path d="M44 52 H58" stroke="#2F1F1A" stroke-width="3.4" stroke-linecap="round"/>
<path d="M70 52 H84" stroke="#2F1F1A" stroke-width="3.4" stroke-linecap="round"/>
  <circle cx="52" cy="61" r="4.6" fill="#6E5A3C" stroke="#1E2831" stroke-width="1.8"/>
<circle cx="76" cy="61" r="4.6" fill="#6E5A3C" stroke="#1E2831" stroke-width="1.8"/>
<circle cx="52" cy="61" r="1.8" fill="#1E2831"/>
<circle cx="76" cy="61" r="1.8" fill="#1E2831"/>
  <path d="M64 66 L61 76 H67" stroke="#A86954" stroke-width="2.1" fill="none" stroke-linecap="round" stroke-linejoin="round"/>
  <path d="M56 84 Q63 87 72 81" stroke="#8D4A43" stroke-width="2.2" fill="none" stroke-linecap="round"/>
  
  
</svg>
