<svg xmlns="http://www.w3.org/2000/svg" width="128" height="128" viewBox="0 0 128 128" role="img" aria-labelledby="title-03 desc-03">
  <title id="title-03">Player avatar 03</title>
  <desc id="desc-03">Curly flat-top with thin mustache.</desc>
  <defs>
    <linearGradient id="bg-03" x1="0" y1="0" x2="1" y2="1">
      <stop offset="0%" stop-color="#E9D2BA"/>
      <stop offset="100%" stop-color="#F7E8D8"/>
    </linearGradient>
  </defs>
  <rect width="128" height="128" rx="24" fill="url(#bg-03)"/>
  <circle cx="64" cy="64" r="46" fill="#FFFFFF" opacity="0.12"/>
  <path d="M18 128 C25 104 41 94 64 94 C87 94 103 104 110 128 Z" fill="#5C86B4"/>
  <rect x="57" y="84" width="14" height="16" rx="7" fill="#7A523F"/>
  
  <path d="M38 49 L38 31 L90 31 L90 49 C90 52 87 55 84 56 H44 C41 55 38 52 38 49 Z" fill="#2D221D" stroke="#2A3945" stroke-width="2.4"/>
<path d="M36 54 C42 46 48 42 54 42 M92 54 C86 46 80 42 74 42" stroke="#2A3945" stroke-width="2.4" stroke-linecap="round"/>
  <rect x="35" y="30" width="58" height="64" rx="18" fill="#7A523F" stroke="#2A3945" stroke-width="2.4"/>
  <circle cx="35" cy="64" r="6" fill="#7A523F"/>
  <circle cx="93" cy="64" r="6" fill="#7A523F"/>
  
  
  <path d="M45 52 H57" stroke="#2F1F1A" stroke-width="2.6" stroke-linecap="round"/>
<path d="M71 52 H83" stroke="#2F1F1A" stroke-width="2.6" stroke-linecap="round"/>
  <circle cx="52" cy="61" r="4.6" fill="#8B5E3C" stroke="#1A232C" stroke-width="1.8"/>
<circle cx="76" cy="61" r="4.6" fill="#8B5E3C" stroke="#1A232C" stroke-width="1.8"/>
<circle cx="52" cy="61" r="1.8" fill="#1A232C"/>
<circle cx="76" cy="61" r="1.8" fill="#1A232C"/>
  <path d="M64 66 L59 77 H69" stroke="#A86954" stroke-width="2.4" fill="none" stroke-linecap="round" stroke-linejoin="round"/>
  <path d="M56 83 Q64 87 72 83" stroke="#8D4A43" stroke-width="2.2" fill="none" stroke-linecap="round"/>
  <path d="M52 78 C56 74 60 74 64 78 C68 74 72 74 76 78" stroke="#2D221D" stroke-width="4" fill="none" stroke-linecap="round"/>
  
</svg>
