<svg xmlns="http://www.w3.org/2000/svg" width="128" height="128" viewBox="0 0 128 128" role="img" aria-labelledby="title-08 desc-08">
  <title id="title-08">Player avatar 08</title>
  <desc id="desc-08">High voluminous ponytail with hoop earrings.</desc>
  <defs>
    <linearGradient id="bg-08" x1="0" y1="0" x2="1" y2="1">
      <stop offset="0%" stop-color="#F0D6B7"/>
      <stop offset="100%" stop-color="#F9EBD8"/>
    </linearGradient>
  </defs>
  <rect width="128" height="128" rx="24" fill="url(#bg-08)"/>
  <circle cx="64" cy="64" r="46" fill="#FFFFFF" opacity="0.12"/>
  <path d="M18 128 C25 104 41 94 64 94 C87 94 103 104 110 128 Z" fill="#CF6A62"/>
  <rect x="57" y="84" width="14" height="16" rx="7" fill="#D1A177"/>
  
  <path d="M42 52 C42 32 55 23 67 23 C78 23 87 31 88 48 L84 56 H44 Z" fill="#5B3428" stroke="#2A3945" stroke-width="2.4"/>
<path d="M82 26 C95 30 100 40 96 53 C90 47 84 44 78 44 Z" fill="#5B3428" stroke="#2A3945" stroke-width="2.4"/>
  <ellipse cx="64" cy="62" rx="27" ry="36" fill="#D1A177" stroke="#2A3945" stroke-width="2.4"/>
  <circle cx="35" cy="64" r="6" fill="#D1A177"/>
  <circle cx="93" cy="64" r="6" fill="#D1A177"/>
  <path d="M44 49 C51 39 60 36 72 38 C78 39 82 42 85 47" fill="#5B3428" stroke="#2A3945" stroke-width="2.2"/>
  
  <path d="M46 53 C49 50 54 50 57 52" stroke="#2F1F1A" stroke-width="2.4" fill="none" stroke-linecap="round"/>
<path d="M71 52 C74 50 79 50 82 53" stroke="#2F1F1A" stroke-width="2.4" fill="none" stroke-linecap="round"/>
  <circle cx="52" cy="61" r="4.6" fill="#5B7C8E" stroke="#21303B" stroke-width="1.8"/>
<circle cx="76" cy="61" r="4.6" fill="#5B7C8E" stroke="#21303B" stroke-width="1.8"/>
<circle cx="52" cy="61" r="1.8" fill="#21303B"/>
<circle cx="76" cy="61" r="1.8" fill="#21303B"/>
  <path d="M64 66 L61 76 H67" stroke="#A86954" stroke-width="2.1" fill="none" stroke-linecap="round" stroke-linejoin="round"/>
  <path d="M54 82 Q64 89 74 82" stroke="#8D4A43" stroke-width="2.4" fill="none" stroke-linecap="round"/>
  
  <circle cx="34" cy="72" r="4" fill="none" stroke="#D7AE54" stroke-width="2.2"/>
<circle cx="94" cy="72" r="4" fill="none" stroke="#D7AE54" stroke-width="2.2"/>
</svg>
