<svg xmlns="http://www.w3.org/2000/svg" width="128" height="128" viewBox="0 0 128 128" role="img" aria-labelledby="title-07 desc-07">
  <title id="title-07">Player avatar 07</title>
  <desc id="desc-07">Platinum pixie with strong freckles and eyebrow slit.</desc>
  <defs>
    <linearGradient id="bg-07" x1="0" y1="0" x2="1" y2="1">
      <stop offset="0%" stop-color="#E7D8CF"/>
      <stop offset="100%" stop-color="#F6EEE9"/>
    </linearGradient>
  </defs>
  <rect width="128" height="128" rx="24" fill="url(#bg-07)"/>
  <circle cx="64" cy="64" r="46" fill="#FFFFFF" opacity="0.12"/>
  <path d="M18 128 C25 104 41 94 64 94 C87 94 103 104 110 128 Z" fill="#9C6B87"/>
  <rect x="57" y="84" width="14" height="16" rx="7" fill="#F4D8C5"/>
  
  <path d="M40 51 C40 34 52 24 67 24 C77 24 86 28 90 36 L81 39 L86 48 L76 45 L66 52 L50 56 Z" fill="#E6DFCF" stroke="#2A3945" stroke-width="2.4"/>
  <path d="M64 28 C47 33 39 47 40 62 C41 80 52 95 64 98 C76 95 87 80 88 62 C89 47 81 33 64 28 Z" fill="#F4D8C5" stroke="#2A3945" stroke-width="2.4"/>
  <circle cx="35" cy="64" r="6" fill="#F4D8C5"/>
  <circle cx="93" cy="64" r="6" fill="#F4D8C5"/>
  <path d="M44 47 C52 37 64 34 79 38" stroke="#2A3945" stroke-width="2.4" fill="none" stroke-linecap="round"/>
  
  <path d="M45 54 C49 49 54 48 58 50" stroke="#2F1F1A" stroke-width="2.6" fill="none" stroke-linecap="round"/>
<path d="M70 50 C74 48 79 49 83 54" stroke="#2F1F1A" stroke-width="2.6" fill="none" stroke-linecap="round"/>
  <circle cx="52" cy="61" r="4.6" fill="#4F6D52" stroke="#20303B" stroke-width="1.8"/>
<circle cx="76" cy="61" r="4.6" fill="#4F6D52" stroke="#20303B" stroke-width="1.8"/>
<circle cx="52" cy="61" r="1.8" fill="#20303B"/>
<circle cx="76" cy="61" r="1.8" fill="#20303B"/>
  <path d="M60 75 Q64 71 68 75" stroke="#A86954" stroke-width="2.2" fill="none" stroke-linecap="round"/>
  <path d="M56 83 Q64 87 72 83" stroke="#8D4A43" stroke-width="2.2" fill="none" stroke-linecap="round"/>
  
  <circle cx="46" cy="72" r="1.8" fill="#C98A67"/>
<circle cx="50" cy="75" r="1.6" fill="#C98A67"/>
<circle cx="54" cy="72" r="1.5" fill="#C98A67"/>
<circle cx="78" cy="72" r="1.8" fill="#C98A67"/>
<circle cx="74" cy="75" r="1.6" fill="#C98A67"/>
<path d="M45 51 L49 48" stroke="#2A3945" stroke-width="2" stroke-linecap="round"/>
</svg>
