<svg xmlns="http://www.w3.org/2000/svg" width="128" height="128" viewBox="0 0 128 128" role="img" aria-labelledby="title-20 desc-20">
  <title id="title-20">Player avatar 20</title>
  <desc id="desc-20">Mid-length copper hair with amber oval glasses.</desc>
  <defs>
    <linearGradient id="bg-20" x1="0" y1="0" x2="1" y2="1">
      <stop offset="0%" stop-color="#F1D6C4"/>
      <stop offset="100%" stop-color="#FAECE2"/>
    </linearGradient>
  </defs>
  <rect width="128" height="128" rx="24" fill="url(#bg-20)"/>
  <circle cx="64" cy="64" r="46" fill="#FFFFFF" opacity="0.12"/>
  <path d="M18 128 C25 104 41 94 64 94 C87 94 103 104 110 128 Z" fill="#C76C4E"/>
  <rect x="57" y="84" width="14" height="16" rx="7" fill="#C5906C"/>
  
  <path d="M34 58 C34 35 47 24 64 24 C81 24 94 35 94 58 C94 79 87 95 77 100 H51 C41 95 34 79 34 58 Z" fill="#B96A3B" stroke="#2A3945" stroke-width="2.4"/>
  <ellipse cx="64" cy="62" rx="29" ry="34" fill="#C5906C" stroke="#2A3945" stroke-width="2.4"/>
  <circle cx="35" cy="64" r="6" fill="#C5906C"/>
  <circle cx="93" cy="64" r="6" fill="#C5906C"/>
  <path d="M42 49 C50 38 61 35 72 37 C78 38 83 42 86 48" fill="#B96A3B" stroke="#2A3945" stroke-width="2.2"/>
  <ellipse cx="52" cy="62" rx="9" ry="7" fill="none" stroke="#D38E3F" stroke-width="3"/>
<ellipse cx="76" cy="62" rx="9" ry="7" fill="none" stroke="#D38E3F" stroke-width="3"/>
<path d="M61 62 H67" stroke="#D38E3F" stroke-width="3" stroke-linecap="round"/>
  <path d="M46 53 C49 50 54 50 57 52" stroke="#2F1F1A" stroke-width="2.4" fill="none" stroke-linecap="round"/>
<path d="M71 52 C74 50 79 50 82 53" stroke="#2F1F1A" stroke-width="2.4" fill="none" stroke-linecap="round"/>
  <circle cx="52" cy="61" r="4.6" fill="#7D6D3E" stroke="#22303C" stroke-width="1.8"/>
<circle cx="76" cy="61" r="4.6" fill="#7D6D3E" stroke="#22303C" stroke-width="1.8"/>
<circle cx="52" cy="61" r="1.8" fill="#22303C"/>
<circle cx="76" cy="61" r="1.8" fill="#22303C"/>
  <ellipse cx="64" cy="73" rx="4" ry="3" fill="#A86954"/>
  <path d="M56 83 Q64 87 72 83" stroke="#8D4A43" stroke-width="2.2" fill="none" stroke-linecap="round"/>
  
  
</svg>
