<svg xmlns="http://www.w3.org/2000/svg" width="128" height="128" viewBox="0 0 128 128" role="img" aria-labelledby="title-16 desc-16">
  <title id="title-16">Player avatar 16</title>
  <desc id="desc-16">Tied braids with turquoise star clip.</desc>
  <defs>
    <linearGradient id="bg-16" x1="0" y1="0" x2="1" y2="1">
      <stop offset="0%" stop-color="#DAE6DE"/>
      <stop offset="100%" stop-color="#EFF7F1"/>
    </linearGradient>
  </defs>
  <rect width="128" height="128" rx="24" fill="url(#bg-16)"/>
  <circle cx="64" cy="64" r="46" fill="#FFFFFF" opacity="0.12"/>
  <path d="M18 128 C25 104 41 94 64 94 C87 94 103 104 110 128 Z" fill="#4E8B7B"/>
  <rect x="57" y="84" width="14" height="16" rx="7" fill="#835B4A"/>
  
  <path d="M40 54 C40 33 52 23 64 23 C76 23 88 33 88 53 L84 57 H44 Z" fill="#35282B" stroke="#2A3945" stroke-width="2.4"/>
<path d="M46 67 C44 79 45 89 50 98" stroke="#35282B" stroke-width="6" stroke-linecap="round"/>
<path d="M82 67 C84 79 83 89 78 98" stroke="#35282B" stroke-width="6" stroke-linecap="round"/>
  <ellipse cx="64" cy="62" rx="29" ry="34" fill="#835B4A" stroke="#2A3945" stroke-width="2.4"/>
  <circle cx="35" cy="64" r="6" fill="#835B4A"/>
  <circle cx="93" cy="64" r="6" fill="#835B4A"/>
  <path d="M45 49 C53 39 64 36 77 38 C81 39 84 42 86 46" fill="#35282B" stroke="#2A3945" stroke-width="2.2"/>
  
  <path d="M46 53 C49 50 54 50 57 52" stroke="#2F1F1A" stroke-width="2.4" fill="none" stroke-linecap="round"/>
<path d="M71 52 C74 50 79 50 82 53" stroke="#2F1F1A" stroke-width="2.4" fill="none" stroke-linecap="round"/>
  <circle cx="52" cy="61" r="4.6" fill="#6B84A3" stroke="#1E2934" stroke-width="1.8"/>
<circle cx="76" cy="61" r="4.6" fill="#6B84A3" stroke="#1E2934" stroke-width="1.8"/>
<circle cx="52" cy="61" r="1.8" fill="#1E2934"/>
<circle cx="76" cy="61" r="1.8" fill="#1E2934"/>
  <path d="M60 75 Q64 71 68 75" stroke="#A86954" stroke-width="2.2" fill="none" stroke-linecap="round"/>
  <path d="M56 83 Q64 87 72 83" stroke="#8D4A43" stroke-width="2.2" fill="none" stroke-linecap="round"/>
  
  <path d="M44 45 L46 49 L50 49 L47 52 L48 56 L44 54 L40 56 L41 52 L38 49 L42 49 Z" fill="#4BC8C0" stroke="#2A3945" stroke-width="1.6"/>
</svg>
