<svg xmlns="http://www.w3.org/2000/svg" width="128" height="128" viewBox="0 0 128 128" role="img" aria-labelledby="title-13 desc-13">
  <title id="title-13">Player avatar 13</title>
  <desc id="desc-13">Brown twin buns with purple cat-eye glasses.</desc>
  <defs>
    <linearGradient id="bg-13" x1="0" y1="0" x2="1" y2="1">
      <stop offset="0%" stop-color="#EAD8E6"/>
      <stop offset="100%" stop-color="#F7EFF5"/>
    </linearGradient>
  </defs>
  <rect width="128" height="128" rx="24" fill="url(#bg-13)"/>
  <circle cx="64" cy="64" r="46" fill="#FFFFFF" opacity="0.12"/>
  <path d="M18 128 C25 104 41 94 64 94 C87 94 103 104 110 128 Z" fill="#7A618E"/>
  <rect x="57" y="84" width="14" height="16" rx="7" fill="#F1D7C6"/>
  
  <circle cx="46" cy="29" r="11" fill="#5A3E35" stroke="#2A3945" stroke-width="2.4"/>
<circle cx="82" cy="29" r="11" fill="#5A3E35" stroke="#2A3945" stroke-width="2.4"/>
<path d="M40 54 C40 35 52 24 64 24 C76 24 88 35 88 54 L84 58 H44 Z" fill="#5A3E35" stroke="#2A3945" stroke-width="2.4"/>
  <path d="M64 28 C47 28 37 40 38 58 C39 75 49 92 64 98 C79 92 89 75 90 58 C91 40 81 28 64 28 Z" fill="#F1D7C6" stroke="#2A3945" stroke-width="2.4"/>
  <circle cx="35" cy="64" r="6" fill="#F1D7C6"/>
  <circle cx="93" cy="64" r="6" fill="#F1D7C6"/>
  <path d="M46 48 C52 39 60 36 69 36 C75 36 81 39 84 44" fill="#5A3E35" stroke="#2A3945" stroke-width="2.2"/>
  <path d="M42 60 C45 52 58 52 61 60 C58 68 45 68 42 60 Z" fill="none" stroke="#875CCB" stroke-width="3"/>
<path d="M67 60 C70 52 83 52 86 60 C83 68 70 68 67 60 Z" fill="none" stroke="#875CCB" stroke-width="3"/>
<path d="M61 60 H67" stroke="#875CCB" stroke-width="3" stroke-linecap="round"/>
<path d="M42 58 L38 55 M86 58 L90 55" stroke="#875CCB" stroke-width="2.4" stroke-linecap="round"/>
  <path d="M45 54 C49 49 54 48 58 50" stroke="#2F1F1A" stroke-width="2.6" fill="none" stroke-linecap="round"/>
<path d="M70 50 C74 48 79 49 83 54" stroke="#2F1F1A" stroke-width="2.6" fill="none" stroke-linecap="round"/>
  <circle cx="52" cy="61" r="4.6" fill="#5E7EA3" stroke="#22303C" stroke-width="1.8"/>
<circle cx="76" cy="61" r="4.6" fill="#5E7EA3" stroke="#22303C" stroke-width="1.8"/>
<circle cx="52" cy="61" r="1.8" fill="#22303C"/>
<circle cx="76" cy="61" r="1.8" fill="#22303C"/>
  <ellipse cx="64" cy="73" rx="4" ry="3" fill="#A86954"/>
  <path d="M54 82 Q64 89 74 82" stroke="#8D4A43" stroke-width="2.4" fill="none" stroke-linecap="round"/>
  
  
</svg>
