<svg xmlns="http://www.w3.org/2000/svg" width="128" height="128" viewBox="0 0 128 128" role="img" aria-labelledby="title-11 desc-11">
  <title id="title-11">Player avatar 11</title>
  <desc id="desc-11">Side braid with orange backward cap.</desc>
  <defs>
    <linearGradient id="bg-11" x1="0" y1="0" x2="1" y2="1">
      <stop offset="0%" stop-color="#F4D6B9"/>
      <stop offset="100%" stop-color="#FBEDDD"/>
    </linearGradient>
  </defs>
  <rect width="128" height="128" rx="24" fill="url(#bg-11)"/>
  <circle cx="64" cy="64" r="46" fill="#FFFFFF" opacity="0.12"/>
  <path d="M18 128 C25 104 41 94 64 94 C87 94 103 104 110 128 Z" fill="#C46E40"/>
  <rect x="57" y="84" width="14" height="16" rx="7" fill="#CFAB87"/>
  
  <path d="M41 52 C41 33 54 23 66 23 C79 23 88 32 88 49 L84 56 H44 Z" fill="#4F3428" stroke="#2A3945" stroke-width="2.4"/>
<path d="M41 67 C34 75 34 86 39 97" stroke="#4F3428" stroke-width="7" stroke-linecap="round"/>
  <path d="M64 28 C46 29 37 42 38 57 C39 73 48 91 64 98 C80 91 89 73 90 57 C91 42 82 29 64 28 Z" fill="#CFAB87" stroke="#2A3945" stroke-width="2.4"/>
  <circle cx="35" cy="64" r="6" fill="#CFAB87"/>
  <circle cx="93" cy="64" r="6" fill="#CFAB87"/>
  <path d="M44 50 C53 40 66 36 79 39" fill="#4F3428" stroke="#2A3945" stroke-width="2.2"/>
  <path d="M39 47 C41 32 53 23 67 23 C78 23 87 30 90 41 L84 50 H45 Z" fill="#F08A39" stroke="#2A3945" stroke-width="2.4"/>
<path d="M79 42 C90 40 96 43 100 49" stroke="#F08A39" stroke-width="7" stroke-linecap="round"/>
  <path d="M45 54 C49 49 54 48 58 50" stroke="#2F1F1A" stroke-width="2.6" fill="none" stroke-linecap="round"/>
<path d="M70 50 C74 48 79 49 83 54" stroke="#2F1F1A" stroke-width="2.6" fill="none" stroke-linecap="round"/>
  <circle cx="52" cy="61" r="4.6" fill="#6E8A52" stroke="#22303C" stroke-width="1.8"/>
<circle cx="76" cy="61" r="4.6" fill="#6E8A52" stroke="#22303C" stroke-width="1.8"/>
<circle cx="52" cy="61" r="1.8" fill="#22303C"/>
<circle cx="76" cy="61" r="1.8" fill="#22303C"/>
  <path d="M60 75 Q64 71 68 75" stroke="#A86954" stroke-width="2.2" fill="none" stroke-linecap="round"/>
  <path d="M54 82 Q64 89 74 82" stroke="#8D4A43" stroke-width="2.4" fill="none" stroke-linecap="round"/>
  
  
</svg>
