<svg xmlns="http://www.w3.org/2000/svg" width="900" height="860" viewBox="0 0 900 860" fill="none" role="img" aria-labelledby="title desc">
  <title id="title">Gameland primary logo mono</title>
  <desc id="desc">Monochrome stacked logo with the Gameland mark above the GAME LAND wordmark.</desc>
  <path d="M528 172 C505 147 472 134 434 134 C370 134 320 184 320 248 C320 313 370 362 434 362 C481 362 520 337 540 301" fill="none" stroke="currentColor" stroke-width="54" stroke-linecap="round" stroke-linejoin="round"/>
  <path d="M434 248 H540" fill="none" stroke="currentColor" stroke-width="54" stroke-linecap="round"/>
  <circle cx="366" cy="160" r="14" fill="currentColor"/>
  <circle cx="538" cy="160" r="14" fill="currentColor"/>
  <circle cx="366" cy="332" r="14" fill="currentColor"/>
  <circle cx="538" cy="332" r="14" fill="currentColor"/>
  <path d="M452 180 L518 246 L452 312 L386 246 Z M432 213 L488 246 L432 279 Z" fill="currentColor" fill-rule="evenodd"/>
  <g fill="currentColor" font-family="Trebuchet MS, Segoe UI, sans-serif" font-size="108" font-weight="700" letter-spacing="10">
    <text x="118" y="620">GAME</text>
    <text x="562" y="620">LAND</text>
  </g>
  <path d="M498 548 L536 586 L498 624 L460 586 Z" fill="currentColor"/>
</svg>