<svg xmlns="http://www.w3.org/2000/svg" width="900" height="860" viewBox="0 0 900 860" fill="none" role="img" aria-labelledby="title desc">
  <title id="title">Gameland primary logo dark</title>
  <desc id="desc">Stacked primary logo with the Gameland mark above the GAME LAND wordmark.</desc>
  <defs>
    <linearGradient id="primary-chip-dark" x1="250" y1="24" x2="676" y2="478" gradientUnits="userSpaceOnUse">
      <stop offset="0%" stop-color="#12324C"/>
      <stop offset="100%" stop-color="#081827"/>
    </linearGradient>
    <linearGradient id="primary-glow-dark" x1="286" y1="76" x2="612" y2="402" gradientUnits="userSpaceOnUse">
      <stop offset="0%" stop-color="#86E9FF"/>
      <stop offset="100%" stop-color="#54C7EC"/>
    </linearGradient>
  </defs>
  <rect x="218" y="32" width="460" height="460" rx="142" fill="url(#primary-chip-dark)"/><rect x="232" y="46" width="432" height="432" rx="128" fill="none" stroke="#DDF5FF" stroke-opacity="0.18" stroke-width="10"/>
  <path d="M528 172 C505 147 472 134 434 134 C370 134 320 184 320 248 C320 313 370 362 434 362 C481 362 520 337 540 301" fill="none" stroke="url(#primary-glow-dark)" stroke-width="54" stroke-linecap="round" stroke-linejoin="round"/>
  <path d="M434 248 H540" fill="none" stroke="#7DE2FF" stroke-width="54" stroke-linecap="round"/>
  <circle cx="366" cy="160" r="14" fill="#DDF5FF"/>
  <circle cx="538" cy="160" r="14" fill="#DDF5FF"/>
  <circle cx="366" cy="332" r="14" fill="#DDF5FF"/>
  <circle cx="538" cy="332" r="14" fill="#DDF5FF"/>
  <path d="M452 180 L518 246 L452 312 L386 246 Z" fill="#FFBF5E" stroke="#19344F" stroke-width="10" stroke-linejoin="round"/>
  <path d="M432 213 L488 246 L432 279 Z" fill="#0B1627"/>
  <g fill="#081827" font-family="Trebuchet MS, Segoe UI, sans-serif" font-size="108" font-weight="700" letter-spacing="10">
    <text x="118" y="620">GAME</text>
    <text x="562" y="620">LAND</text>
  </g>
  <path d="M498 548 L536 586 L498 624 L460 586 Z" fill="#FFBF5E" stroke="#19344F" stroke-width="8" stroke-linejoin="round"/>
</svg>